# xmcd
#
# Track frame offsets:
# 150
# 22343
# 36344
# 51992
# 73871
# 91080
# 107623
# 125504
# 138962
# 161709
# 177403
# 196754
# 209038
#
# Disc length: 2928 seconds
#
#
# Revision: 0
# Processed by: cddbd v1.5.2PL0 Copyright (c) Steve Scherf et al.
# Submitted via: FreeRIP 2.945 
#
DISCID=c30b6e0d
DTITLE=B.B. King - The Best Of B.B. King Christmas Collection 
DYEAR=1900
DGENRE=Blues
TTITLE0=Please Come home For Christmas
TTITLE1=Lonesome Christmas
TTITLE2=Back Door Santa
TTITLE3=Christmas In Heaven
TTITLE4=I'll Be Home For Christmas
TTITLE5=To Someone That I Love
TTITLE6=Christmas Celebration
TTITLE7=Merry Christmas Baby
TTITLE8=Christmas Love
TTITLE9=Blue Decorations
TTITLE10=Christmas Comes But Once A Year
TTITLE11=Bring In A Brand New Year
TTITLE12=Auld Lang Syne
EXTD=
EXTT0=
EXTT1=
EXTT2=
EXTT3=
EXTT4=
EXTT5=
EXTT6=
EXTT7=
EXTT8=
EXTT9=
EXTT10=
EXTT11=
EXTT12=
PLAYORDER=
